<svg fill="none" stroke="currentColor" stroke-linecap="round" stroke-linejoin="round" stroke-miterlimit="10" stroke-width="2" xmlns="http://www.w3.org/2000/svg" viewBox="0 0 24 24"><ellipse cx="11.889" cy="12" rx="3.889" ry="4"/><path d="M19.779 10h0c.674 0 1.221.547 1.221 1.221v1.557c0 .675-.547 1.222-1.221 1.222h0c-1.088 0-1.633 1.316-.864 2.085l.001.001c.477.477.477 1.25 0 1.727l-1.103 1.103a1.221 1.221 0 01-1.727 0l-.001-.001c-.769-.769-2.085-.225-2.085.864v0c0 .674-.547 1.221-1.221 1.221h-1.557A1.222 1.222 0 0110 19.779v0c0-1.088-1.316-1.633-2.085-.864l-.001.001a1.221 1.221 0 01-1.727 0l-1.103-1.103a1.221 1.221 0 010-1.727l.001-.001c.769-.769.224-2.085-.864-2.085h0A1.221 1.221 0 013 12.779v-1.557C3 10.547 3.547 10 4.221 10h0c1.088 0 1.633-1.316.864-2.085l-.001-.001a1.221 1.221 0 010-1.727l1.103-1.103a1.221 1.221 0 011.727 0l.001.001c.769.769 2.085.224 2.085-.864v0C10 3.547 10.547 3 11.221 3h1.557C13.453 3 14 3.547 14 4.221v0c0 1.088 1.316 1.633 2.085.864l.001-.001a1.221 1.221 0 011.727 0l1.103 1.103c.477.477.477 1.25 0 1.727l-.001.001c-.769.769-.224 2.085.864 2.085z"/></svg>