<svg xmlns="http://www.w3.org/2000/svg" viewBox="0 0 24 24" fill="none" stroke="currentColor" stroke-linecap="round" stroke-linejoin="round" stroke-width="2"><path d="M20 19H4c-.55 0-1-.45-1-1v-2.71c0-.27.11-.53.3-.72l1.4-1.36c.19-.19.3-.45.3-.72v-1.18c0-.28-.11-.54-.31-.73L3.32 9.29a.997.997 0 0 1-.31-.73V5.99c0-.55.45-1 1-1H20c.55 0 1 .45 1 1v2.58c0 .27-.11.53-.3.72l-1.4 1.36c-.19.19-.3.45-.3.72v1.2a1 1 0 0 0 .3.71l1.41 1.4a1 1 0 0 1 .3.71V18c0 .55-.45 1-1 1Z"/><circle cx="12" cy="12" r="3"/></svg>