<?xml version="1.0" encoding="UTF-8"?><svg xmlns="http://www.w3.org/2000/svg" xmlns:xlink="http://www.w3.org/1999/xlink" viewBox="0 0 24 24"><defs><linearGradient id="linear-gradient" x1="16.24" y1="6.59" x2="6.47" y2="19.06" gradientUnits="userSpaceOnUse"><stop offset="0" stop-color="#8781ff"/><stop offset=".46" stop-color="#595ac8"/><stop offset=".99" stop-color="#514f6e"/></linearGradient><filter id="drop-shadow-1" filterUnits="userSpaceOnUse"><feOffset dx="0" dy="0"/><feGaussianBlur result="blur" stdDeviation="2"/><feFlood flood-color="#30c" flood-opacity="1"/><feComposite in2="blur" operator="in"/><feComposite in="SourceGraphic"/></filter></defs><g id="Layer_7"><rect x="0" y="0" width="24" height="24" rx="4" ry="4" style="fill:url(#linear-gradient);"/></g><g id="Layer_6" style="filter:url(#drop-shadow-1);"><path d="M4.25,13.99c-.16-.64-.25-1.31-.25-1.99,0-4.42,3.58-8,8-8,2.3,0,4.36,.97,5.82,2.51" style="fill:none; stroke:#fff; stroke-linecap:round; stroke-linejoin:round; stroke-width:1.5px;"/><path d="M19.85,10.45c.1,.5,.15,1.02,.15,1.55,0,4.42-3.58,8-8,8-2.36,0-4.48-1.02-5.95-2.65" style="fill:none; stroke:#fff; stroke-linecap:round; stroke-linejoin:round; stroke-width:1.5px;"/><path d="M8,12c0-.1,0-.2,.01-.3,.15-2.07,1.88-3.7,3.99-3.7,.73,0,1.41,.2,2,.54" style="fill:none; stroke:#fff; stroke-linecap:round; stroke-linejoin:round; stroke-width:1.5px;"/><path d="M16,12c0,.16,0,.33-.03,.48-.24,1.98-1.93,3.52-3.97,3.52-.76,0-1.47-.21-2.07-.58" style="fill:none; stroke:#fff; stroke-linecap:round; stroke-linejoin:round; stroke-width:1.5px;"/><line x1="3" y1="15" x2="20" y2="6" style="fill:none; stroke:#fff; stroke-linecap:round; stroke-linejoin:round; stroke-width:1.5px;"/><line x1="21" y1="9" x2="4" y2="18" style="fill:none; stroke:#fff; stroke-linecap:round; stroke-linejoin:round; stroke-width:1.5px;"/></g></svg>