<svg xmlns="http://www.w3.org/2000/svg" viewBox="0 0 24 24" fill="none" stroke="currentColor" stroke-linecap="round" stroke-linejoin="round" stroke-width="2"><path d="M3 7.04c0 .62.16 1.23.47 1.76.67 1.16 1.91 1.81 3.16 2.16.14.04.28.07.39.16.49.35.03 1.24-.12 1.66-.54 1.45-1.23 2.84-1.91 4.23.73-.1 1.34-.59 1.86-1.11.93-.93 1.72-1.98 2.4-3.1.63-1.02 1.18-2.09 1.49-3.24s.37-2.39.01-3.53-1.14-2.17-2.22-2.68c-2.25-1.06-4.88.44-5.43 2.77-.07.3-.1.61-.1.92Zm10 4c0 .62.16 1.23.47 1.76.67 1.16 1.91 1.81 3.16 2.16.14.04.28.07.39.16.49.35.03 1.24-.12 1.66-.54 1.45-1.23 2.84-1.91 4.23.73-.1 1.34-.59 1.86-1.11.93-.93 1.72-1.98 2.4-3.1.63-1.02 1.18-2.09 1.49-3.24s.37-2.39.01-3.53-1.14-2.17-2.22-2.68c-2.25-1.06-4.88.44-5.43 2.77-.07.3-.1.61-.1.92Z"/></svg>