<svg xmlns="http://www.w3.org/2000/svg" viewBox="0 0 24 24" fill="none" stroke="currentColor" stroke-linecap="round" stroke-linejoin="round" stroke-width="2"><path d="M7 9h2.99l.01 6"/><path d="M12 21h0s0 0 0 0a18.285 18.285 0 0 1-8.64-9.17l-.03-.08c-.21-.5-.32-1.03-.32-1.58V4l2.24.75c.5.17 1.03.25 1.56.25h0c.76 0 1.51-.18 2.19-.51L12.01 3l2.96 1.48c.69.34 1.44.52 2.21.52h.03c.53 0 1.06-.09 1.56-.25L21.01 4v6.18c0 .54-.11 1.08-.32 1.58l-.03.08a18.366 18.366 0 0 1-8.64 9.17Z"/><path d="M17 9h-3.01l.01 6"/></svg>