<svg xmlns="http://www.w3.org/2000/svg" viewBox="0 0 24 24" stroke="currentColor" stroke-linecap="round" stroke-linejoin="round" stroke-width="2" fill="none"><circle cx="12" cy="12" r="9"/><path d="M20 9l-2.96 1.48c-.57.29-.81.98-.52 1.56h0c.27.54.08 1.2-.44 1.51l-3.09 1.85c-.56.34-.77 1.04-.47 1.63h0c.28.56.92.82 1.51.63l1.33-.44c.37-.12.77.04.94.39l.7 1.4M4 14l2.17-2.89c.44-.59 1.3-.65 1.81-.13l.18.18c.54.54.84 1.27.84 2.04v.51c0 .81-.41 1.57-1.08 2.02L6 17.01M9 4l.8 1.61c.13.26.2.54.2.83v.23c0 .8.51 1.51 1.27 1.76h0c.96.32 2-.19 2.34-1.15l.02-.05c.16-.47.5-.85.95-1.06L17.01 5"/></svg>